# xmcd
# 
# Track frame offsets:
#     150
#     13360
#     28217
#     41295
#     61337
#     75623
#     85540
#     116736
#     138460
#     149618
#     159134
#     172298
#     186725
#     197364
#     214465
#     239146
#     256166
#     280232
#     301057
#     318752
#     332449
# 
# Disc length: 4751
# 
# Revision: 9
# Processed by: cddbd v1.5.2PL0 Copyright (c) Steve Scherf et al.
# Submitted via: BonkEnc v1.0.6
# 
DISCID=31128d15
DTITLE=THE BLUE HEARTS - ALL TIME SINGLES ～SUPER PREMIUM BEST～ [Disc 2]
DYEAR=2010
DGENRE=ロック
TTITLE0=情熱の薔薇
TTITLE1=鉄砲
TTITLE2=首つり台から
TTITLE3=シンデレラ (灰の中から)
TTITLE4=あの娘にタッチ
TTITLE5=わーわー [Live]
TTITLE6=TOO MUCH PAIN
TTITLE7=泣かないで恋人よ
TTITLE8=夢
TTITLE9=皆殺しのメロディー [Live]
TTITLE10=東京ゾンビ (ロシアンルーレット) [Live]
TTITLE11=旅人
TTITLE12=台風
TTITLE13=1000のバイオリン
TTITLE14=俺は俺の死を死にたい [Alternative Version]
TTITLE15=1001のバイオリン
TTITLE16=パーティー
TTITLE17=チャンス
TTITLE18=夕暮れ
TTITLE19=すてごま [Live]
TTITLE20=夜の盗賊団
EXTD=YEAR: 2010
EXTT0=
EXTT1=
EXTT2=
EXTT3=
EXTT4=
EXTT5=
EXTT6=
EXTT7=
EXTT8=
EXTT9=
EXTT10=
EXTT11=
EXTT12=
EXTT13=
EXTT14=
EXTT15=
EXTT16=
EXTT17=
EXTT18=
EXTT19=
EXTT20=
PLAYORDER=
